<svg id="visual" viewBox="0 0 900 900" width="900" height="900" xmlns="http://www.w3.org/2000/svg" xmlns:xlink="http://www.w3.org/1999/xlink" version="1.1"><rect x="0" y="0" width="900" height="900" fill="#d2d2d2"></rect><defs><linearGradient id="grad1_0" x1="0%" y1="0%" x2="100%" y2="100%"><stop offset="30%" stop-color="#6600ff" stop-opacity="1"></stop><stop offset="70%" stop-color="#6600ff" stop-opacity="1"></stop></linearGradient></defs><defs><linearGradient id="grad1_1" x1="0%" y1="0%" x2="100%" y2="100%"><stop offset="30%" stop-color="#6600ff" stop-opacity="1"></stop><stop offset="70%" stop-color="#8944f7" stop-opacity="1"></stop></linearGradient></defs><defs><linearGradient id="grad1_2" x1="0%" y1="0%" x2="100%" y2="100%"><stop offset="30%" stop-color="#a36aef" stop-opacity="1"></stop><stop offset="70%" stop-color="#8944f7" stop-opacity="1"></stop></linearGradient></defs><defs><linearGradient id="grad1_3" x1="0%" y1="0%" x2="100%" y2="100%"><stop offset="30%" stop-color="#a36aef" stop-opacity="1"></stop><stop offset="70%" stop-color="#b68ee6" stop-opacity="1"></stop></linearGradient></defs><defs><linearGradient id="grad1_4" x1="0%" y1="0%" x2="100%" y2="100%"><stop offset="30%" stop-color="#c6b0dd" stop-opacity="1"></stop><stop offset="70%" stop-color="#b68ee6" stop-opacity="1"></stop></linearGradient></defs><defs><linearGradient id="grad1_5" x1="0%" y1="0%" x2="100%" y2="100%"><stop offset="30%" stop-color="#c6b0dd" stop-opacity="1"></stop><stop offset="70%" stop-color="#d2d2d2" stop-opacity="1"></stop></linearGradient></defs><defs><linearGradient id="grad2_0" x1="0%" y1="0%" x2="100%" y2="100%"><stop offset="30%" stop-color="#6600ff" stop-opacity="1"></stop><stop offset="70%" stop-color="#6600ff" stop-opacity="1"></stop></linearGradient></defs><defs><linearGradient id="grad2_1" x1="0%" y1="0%" x2="100%" y2="100%"><stop offset="30%" stop-color="#8944f7" stop-opacity="1"></stop><stop offset="70%" stop-color="#6600ff" stop-opacity="1"></stop></linearGradient></defs><defs><linearGradient id="grad2_2" x1="0%" y1="0%" x2="100%" y2="100%"><stop offset="30%" stop-color="#8944f7" stop-opacity="1"></stop><stop offset="70%" stop-color="#a36aef" stop-opacity="1"></stop></linearGradient></defs><defs><linearGradient id="grad2_3" x1="0%" y1="0%" x2="100%" y2="100%"><stop offset="30%" stop-color="#b68ee6" stop-opacity="1"></stop><stop offset="70%" stop-color="#a36aef" stop-opacity="1"></stop></linearGradient></defs><defs><linearGradient id="grad2_4" x1="0%" y1="0%" x2="100%" y2="100%"><stop offset="30%" stop-color="#b68ee6" stop-opacity="1"></stop><stop offset="70%" stop-color="#c6b0dd" stop-opacity="1"></stop></linearGradient></defs><defs><linearGradient id="grad2_5" x1="0%" y1="0%" x2="100%" y2="100%"><stop offset="30%" stop-color="#d2d2d2" stop-opacity="1"></stop><stop offset="70%" stop-color="#c6b0dd" stop-opacity="1"></stop></linearGradient></defs><g transform="translate(900, 0)"><path d="M0 477.3C-61.9 470 -123.9 462.7 -182.7 441C-241.4 419.2 -297 383 -335.9 335.9C-374.7 288.8 -396.8 230.8 -417.6 173C-438.4 115.2 -457.8 57.6 -477.3 0L0 0Z" fill="#ccc1d8"></path><path d="M0 397.7C-51.6 391.7 -103.2 385.6 -152.2 367.5C-201.2 349.3 -247.5 319.2 -279.9 279.9C-312.3 240.6 -330.7 192.3 -348 144.1C-365.3 96 -381.5 48 -397.7 0L0 0Z" fill="#be9fe2"></path><path d="M0 318.2C-41.3 313.3 -82.6 308.5 -121.8 294C-161 279.5 -198 255.3 -223.9 223.9C-249.8 192.5 -264.5 153.8 -278.4 115.3C-292.2 76.8 -305.2 38.4 -318.2 0L0 0Z" fill="#ad7ceb"></path><path d="M0 238.6C-31 235 -61.9 231.4 -91.3 220.5C-120.7 209.6 -148.5 191.5 -167.9 167.9C-187.4 144.4 -198.4 115.4 -208.8 86.5C-219.2 57.6 -228.9 28.8 -238.6 0L0 0Z" fill="#9758f3"></path><path d="M0 159.1C-20.6 156.7 -41.3 154.2 -60.9 147C-80.5 139.7 -99 127.7 -112 112C-124.9 96.3 -132.3 76.9 -139.2 57.7C-146.1 38.4 -152.6 19.2 -159.1 0L0 0Z" fill="#792cfb"></path><path d="M0 79.5C-10.3 78.3 -20.6 77.1 -30.4 73.5C-40.2 69.9 -49.5 63.8 -56 56C-62.5 48.1 -66.1 38.5 -69.6 28.8C-73.1 19.2 -76.3 9.6 -79.5 0L0 0Z" fill="#6600ff"></path></g><g transform="translate(0, 900)"><path d="M0 -477.3C59.1 -460.2 118.2 -443.2 174.1 -420.4C230 -397.6 282.7 -369.1 329.5 -329.5C376.3 -290 417.3 -239.4 441 -182.7C464.6 -125.9 471 -62.9 477.3 0L0 0Z" fill="#ccc1d8"></path><path d="M0 -397.7C49.3 -383.5 98.5 -369.3 145.1 -350.3C191.7 -331.3 235.6 -307.5 274.6 -274.6C313.6 -241.6 347.8 -199.5 367.5 -152.2C387.2 -104.9 392.5 -52.5 397.7 0L0 0Z" fill="#be9fe2"></path><path d="M0 -318.2C39.4 -306.8 78.8 -295.4 116.1 -280.2C153.3 -265 188.5 -246 219.7 -219.7C250.9 -193.3 278.2 -159.6 294 -121.8C309.7 -83.9 314 -42 318.2 0L0 0Z" fill="#ad7ceb"></path><path d="M0 -238.6C29.6 -230.1 59.1 -221.6 87.1 -210.2C115 -198.8 141.3 -184.5 164.8 -164.8C188.2 -145 208.7 -119.7 220.5 -91.3C232.3 -62.9 235.5 -31.5 238.6 0L0 0Z" fill="#9758f3"></path><path d="M0 -159.1C19.7 -153.4 39.4 -147.7 58 -140.1C76.7 -132.5 94.2 -123 109.8 -109.8C125.4 -96.7 139.1 -79.8 147 -60.9C154.9 -42 157 -21 159.1 0L0 0Z" fill="#792cfb"></path><path d="M0 -79.5C9.9 -76.7 19.7 -73.9 29 -70.1C38.3 -66.3 47.1 -61.5 54.9 -54.9C62.7 -48.3 69.6 -39.9 73.5 -30.4C77.4 -21 78.5 -10.5 79.5 0L0 0Z" fill="#6600ff"></path></g></svg>